<mxfile host="Electron" modified="2024-01-16T17:27:47.849Z" agent="Mozilla/5.0 (Windows NT 10.0; Win64; x64) AppleWebKit/537.36 (KHTML, like Gecko) draw.io/22.1.16 Chrome/120.0.6099.109 Electron/28.1.0 Safari/537.36" etag="CUL_S8cdBx7nxV6ru6li" version="22.1.16" type="device" pages="2">
  <diagram name="original workflow" id="ru0vsOrcMmmFmGAPN0gL">
    <mxGraphModel dx="2444" dy="1138" grid="1" gridSize="10" guides="1" tooltips="1" connect="1" arrows="1" fold="1" page="1" pageScale="1" pageWidth="1700" pageHeight="1100" math="0" shadow="0">
      <root>
        <mxCell id="0" />
        <mxCell id="1" parent="0" />
        <mxCell id="_angMufh-uXH8s0b8wE8-1" value="Input Dataset" style="strokeWidth=2;html=1;shape=mxgraph.flowchart.start_1;whiteSpace=wrap;fontSize=13;fontStyle=1;fillColor=#d5e8d4;strokeColor=#82b366;" parent="1" vertex="1">
          <mxGeometry x="30" y="115.72" width="133.33" height="80" as="geometry" />
        </mxCell>
        <mxCell id="_angMufh-uXH8s0b8wE8-2" value="&lt;b style=&quot;font-size: 30px;&quot;&gt;Workflow summary of the Agroforestry Modeling Effort&lt;br&gt;&lt;/b&gt;" style="text;html=1;align=center;verticalAlign=middle;resizable=0;points=[];autosize=1;strokeColor=none;fillColor=none;" parent="1" vertex="1">
          <mxGeometry x="20" y="40" width="810" height="50" as="geometry" />
        </mxCell>
        <mxCell id="_angMufh-uXH8s0b8wE8-4" value="Output Data&lt;br&gt;" style="shape=parallelogram;html=1;strokeWidth=2;perimeter=parallelogramPerimeter;whiteSpace=wrap;rounded=1;arcSize=12;size=0.23;fontStyle=1;fillColor=#ffe6cc;strokeColor=#d79b00;" parent="1" vertex="1">
          <mxGeometry x="360" y="112.86000000000001" width="160" height="68.57" as="geometry" />
        </mxCell>
        <mxCell id="_angMufh-uXH8s0b8wE8-6" value="&lt;b&gt;&lt;font style=&quot;font-size: 15px;&quot;&gt;Function&lt;/font&gt;&lt;/b&gt;" style="rounded=1;whiteSpace=wrap;html=1;absoluteArcSize=1;arcSize=14;strokeWidth=2;fillColor=#dae8fc;strokeColor=#6c8ebf;" parent="1" vertex="1">
          <mxGeometry x="210" y="101.43" width="100" height="100" as="geometry" />
        </mxCell>
        <mxCell id="_angMufh-uXH8s0b8wE8-9" value="Parameter" style="strokeWidth=2;html=1;shape=mxgraph.flowchart.document2;whiteSpace=wrap;size=0.25;fillColor=#e1d5e7;strokeColor=#9673a6;" parent="1" vertex="1">
          <mxGeometry x="600" y="121.43" width="100" height="60" as="geometry" />
        </mxCell>
        <mxCell id="iq7f8JGCRkE5DKr1awx2-1" value="&lt;font style=&quot;font-size: 16px;&quot;&gt;&lt;b&gt;Developing the training data&lt;/b&gt;&lt;br&gt;Training data will be gather from a specific location and then applied to multiple locations outside of the original sampling AOI. Therefore the initial workflow is independent of the applying and testing of the models.&amp;nbsp;&amp;nbsp;&lt;br&gt;&lt;/font&gt;" style="rounded=0;whiteSpace=wrap;html=1;fillColor=#f8cecc;strokeColor=#b85450;" parent="1" vertex="1">
          <mxGeometry x="48.33" y="270" width="440" height="110" as="geometry" />
        </mxCell>
        <mxCell id="iq7f8JGCRkE5DKr1awx2-8" value="G" style="group" parent="1" vertex="1" connectable="0">
          <mxGeometry x="53.33" y="410" width="238.33" height="300" as="geometry" />
        </mxCell>
        <mxCell id="iq7f8JGCRkE5DKr1awx2-3" value="NAIP Imagery" style="strokeWidth=2;html=1;shape=mxgraph.flowchart.start_1;whiteSpace=wrap;fontSize=13;fontStyle=1;fillColor=#d5e8d4;strokeColor=#82b366;" parent="iq7f8JGCRkE5DKr1awx2-8" vertex="1">
          <mxGeometry y="100" width="133.33" height="80" as="geometry" />
        </mxCell>
        <mxCell id="iq7f8JGCRkE5DKr1awx2-5" value="Year" style="strokeWidth=2;html=1;shape=mxgraph.flowchart.document2;whiteSpace=wrap;size=0.25;fillColor=#e1d5e7;strokeColor=#9673a6;" parent="iq7f8JGCRkE5DKr1awx2-8" vertex="1">
          <mxGeometry x="15.000000000000014" width="103.33" height="70" as="geometry" />
        </mxCell>
        <mxCell id="iq7f8JGCRkE5DKr1awx2-15" style="edgeStyle=orthogonalEdgeStyle;rounded=0;orthogonalLoop=1;jettySize=auto;html=1;exitX=1;exitY=0.5;exitDx=0;exitDy=0;exitPerimeter=0;entryX=0;entryY=0.5;entryDx=0;entryDy=0;" parent="1" source="iq7f8JGCRkE5DKr1awx2-13" target="iq7f8JGCRkE5DKr1awx2-27" edge="1">
          <mxGeometry relative="1" as="geometry">
            <mxPoint x="292.3000000000002" y="716.2900000000004" as="targetPoint" />
          </mxGeometry>
        </mxCell>
        <mxCell id="iq7f8JGCRkE5DKr1awx2-18" style="edgeStyle=orthogonalEdgeStyle;rounded=0;orthogonalLoop=1;jettySize=auto;html=1;exitX=0.855;exitY=0.145;exitDx=0;exitDy=0;exitPerimeter=0;entryX=0;entryY=0.5;entryDx=0;entryDy=0;" parent="1" source="iq7f8JGCRkE5DKr1awx2-13" target="iq7f8JGCRkE5DKr1awx2-17" edge="1">
          <mxGeometry relative="1" as="geometry" />
        </mxCell>
        <mxCell id="iq7f8JGCRkE5DKr1awx2-19" value="&lt;font style=&quot;font-size: 15px;&quot;&gt;Used as AOI&lt;/font&gt;" style="edgeLabel;html=1;align=center;verticalAlign=middle;resizable=0;points=[];" parent="iq7f8JGCRkE5DKr1awx2-18" vertex="1" connectable="0">
          <mxGeometry x="-0.1657" y="2" relative="1" as="geometry">
            <mxPoint x="-1" as="offset" />
          </mxGeometry>
        </mxCell>
        <mxCell id="iq7f8JGCRkE5DKr1awx2-13" value="PA datasets" style="strokeWidth=2;html=1;shape=mxgraph.flowchart.start_1;whiteSpace=wrap;fontSize=13;fontStyle=1;fillColor=#d5e8d4;strokeColor=#82b366;" parent="1" vertex="1">
          <mxGeometry x="53.33" y="670" width="133.33" height="80" as="geometry" />
        </mxCell>
        <mxCell id="iq7f8JGCRkE5DKr1awx2-23" style="edgeStyle=orthogonalEdgeStyle;rounded=0;orthogonalLoop=1;jettySize=auto;html=1;exitX=1;exitY=0.5;exitDx=0;exitDy=0;entryX=0;entryY=0.5;entryDx=0;entryDy=0;" parent="1" source="iq7f8JGCRkE5DKr1awx2-17" target="iq7f8JGCRkE5DKr1awx2-21" edge="1">
          <mxGeometry relative="1" as="geometry" />
        </mxCell>
        <mxCell id="iq7f8JGCRkE5DKr1awx2-17" value="&lt;font style=&quot;font-size: 15px;&quot;&gt;&lt;b&gt;ProcessNAIP&lt;/b&gt;&lt;br&gt;select, clip, moasic, ndvi, other bands&lt;br&gt;&lt;/font&gt;" style="rounded=1;whiteSpace=wrap;html=1;absoluteArcSize=1;arcSize=14;strokeWidth=2;fillColor=#dae8fc;strokeColor=#6c8ebf;" parent="1" vertex="1">
          <mxGeometry x="291.66" y="450" width="150" height="120" as="geometry" />
        </mxCell>
        <mxCell id="iq7f8JGCRkE5DKr1awx2-4" style="edgeStyle=orthogonalEdgeStyle;rounded=0;orthogonalLoop=1;jettySize=auto;html=1;exitX=1;exitY=0.5;exitDx=0;exitDy=0;exitPerimeter=0;entryX=0;entryY=0.5;entryDx=0;entryDy=0;" parent="1" source="iq7f8JGCRkE5DKr1awx2-5" target="iq7f8JGCRkE5DKr1awx2-17" edge="1">
          <mxGeometry relative="1" as="geometry">
            <mxPoint x="291.66" y="530" as="targetPoint" />
          </mxGeometry>
        </mxCell>
        <mxCell id="iq7f8JGCRkE5DKr1awx2-2" style="edgeStyle=orthogonalEdgeStyle;rounded=0;orthogonalLoop=1;jettySize=auto;html=1;exitX=1;exitY=0.5;exitDx=0;exitDy=0;exitPerimeter=0;entryX=0;entryY=0.5;entryDx=0;entryDy=0;" parent="1" source="iq7f8JGCRkE5DKr1awx2-3" target="iq7f8JGCRkE5DKr1awx2-17" edge="1">
          <mxGeometry relative="1" as="geometry">
            <Array as="points">
              <mxPoint x="231.66000000000003" y="550" />
              <mxPoint x="231.66000000000003" y="510" />
            </Array>
            <mxPoint x="291.66" y="530" as="targetPoint" />
          </mxGeometry>
        </mxCell>
        <mxCell id="iq7f8JGCRkE5DKr1awx2-20" style="edgeStyle=orthogonalEdgeStyle;rounded=0;orthogonalLoop=1;jettySize=auto;html=1;exitX=1;exitY=0.5;exitDx=0;exitDy=0;" parent="1" source="iq7f8JGCRkE5DKr1awx2-21" target="iq7f8JGCRkE5DKr1awx2-22" edge="1">
          <mxGeometry relative="1" as="geometry" />
        </mxCell>
        <mxCell id="iq7f8JGCRkE5DKr1awx2-21" value="&lt;font style=&quot;font-size: 15px;&quot;&gt;&lt;b&gt;snicModel&lt;/b&gt;&lt;br&gt;Define seeds, run segementation, project results&lt;br&gt;&lt;/font&gt;" style="rounded=1;whiteSpace=wrap;html=1;absoluteArcSize=1;arcSize=14;strokeWidth=2;fillColor=#dae8fc;strokeColor=#6c8ebf;" parent="1" vertex="1">
          <mxGeometry x="501.6599999999999" y="510" width="210" height="160" as="geometry" />
        </mxCell>
        <mxCell id="iq7f8JGCRkE5DKr1awx2-26" style="edgeStyle=orthogonalEdgeStyle;rounded=0;orthogonalLoop=1;jettySize=auto;html=1;exitX=1;exitY=0.5;exitDx=0;exitDy=0;entryX=0;entryY=0.5;entryDx=0;entryDy=0;" parent="1" source="iq7f8JGCRkE5DKr1awx2-22" target="iq7f8JGCRkE5DKr1awx2-24" edge="1">
          <mxGeometry relative="1" as="geometry">
            <Array as="points">
              <mxPoint x="1001.66" y="510" />
              <mxPoint x="1001.66" y="604" />
            </Array>
          </mxGeometry>
        </mxCell>
        <mxCell id="iq7f8JGCRkE5DKr1awx2-22" value="Clustered Images&lt;br&gt;&lt;span style=&quot;font-weight: normal;&quot;&gt;Mean values per object &lt;br&gt;recorded for each cell&lt;/span&gt;" style="shape=parallelogram;html=1;strokeWidth=2;perimeter=parallelogramPerimeter;whiteSpace=wrap;rounded=1;arcSize=12;size=0.23;fontStyle=1;fillColor=#ffe6cc;strokeColor=#d79b00;" parent="1" vertex="1">
          <mxGeometry x="771.6600000000001" y="445" width="210" height="130" as="geometry" />
        </mxCell>
        <mxCell id="iq7f8JGCRkE5DKr1awx2-28" style="edgeStyle=orthogonalEdgeStyle;rounded=0;orthogonalLoop=1;jettySize=auto;html=1;exitX=0.5;exitY=1;exitDx=0;exitDy=0;entryX=0.5;entryY=0;entryDx=0;entryDy=0;" parent="1" source="iq7f8JGCRkE5DKr1awx2-24" target="iq7f8JGCRkE5DKr1awx2-27" edge="1">
          <mxGeometry relative="1" as="geometry" />
        </mxCell>
        <mxCell id="iq7f8JGCRkE5DKr1awx2-24" value="NAIP and Cluster Bands" style="shape=parallelogram;html=1;strokeWidth=2;perimeter=parallelogramPerimeter;whiteSpace=wrap;rounded=1;arcSize=12;size=0.23;fontStyle=1;fillColor=#ffe6cc;strokeColor=#d79b00;" parent="1" vertex="1">
          <mxGeometry x="1001.66" y="550" width="250" height="108.57" as="geometry" />
        </mxCell>
        <mxCell id="iq7f8JGCRkE5DKr1awx2-82" style="edgeStyle=orthogonalEdgeStyle;rounded=0;orthogonalLoop=1;jettySize=auto;html=1;exitX=1;exitY=0.5;exitDx=0;exitDy=0;entryX=0;entryY=0.5;entryDx=0;entryDy=0;" parent="1" source="iq7f8JGCRkE5DKr1awx2-27" target="iq7f8JGCRkE5DKr1awx2-81" edge="1">
          <mxGeometry relative="1" as="geometry" />
        </mxCell>
        <mxCell id="iq7f8JGCRkE5DKr1awx2-27" value="&lt;font style=&quot;font-size: 15px;&quot;&gt;&lt;b&gt;Extract Values&lt;/b&gt;&lt;br&gt;gather values for the test and train sets&lt;br&gt;&lt;/font&gt;" style="rounded=1;whiteSpace=wrap;html=1;absoluteArcSize=1;arcSize=14;strokeWidth=2;fillColor=#dae8fc;strokeColor=#6c8ebf;" parent="1" vertex="1">
          <mxGeometry x="1001.66" y="700" width="230" height="100" as="geometry" />
        </mxCell>
        <mxCell id="iq7f8JGCRkE5DKr1awx2-31" value="SNIC model Parameters" style="strokeWidth=2;html=1;shape=mxgraph.flowchart.document2;whiteSpace=wrap;size=0.25;fillColor=#e1d5e7;strokeColor=#9673a6;" parent="1" vertex="1">
          <mxGeometry x="554.9900000000001" y="375" width="103.33" height="70" as="geometry" />
        </mxCell>
        <mxCell id="iq7f8JGCRkE5DKr1awx2-32" style="edgeStyle=orthogonalEdgeStyle;rounded=0;orthogonalLoop=1;jettySize=auto;html=1;exitX=1;exitY=0.75;exitDx=0;exitDy=0;exitPerimeter=0;entryX=0.655;entryY=-0.023;entryDx=0;entryDy=0;entryPerimeter=0;" parent="1" source="iq7f8JGCRkE5DKr1awx2-31" target="iq7f8JGCRkE5DKr1awx2-21" edge="1">
          <mxGeometry relative="1" as="geometry" />
        </mxCell>
        <mxCell id="iq7f8JGCRkE5DKr1awx2-33" style="edgeStyle=orthogonalEdgeStyle;rounded=0;orthogonalLoop=1;jettySize=auto;html=1;exitX=1;exitY=0.5;exitDx=0;exitDy=0;exitPerimeter=0;" parent="1" source="iq7f8JGCRkE5DKr1awx2-34" target="iq7f8JGCRkE5DKr1awx2-40" edge="1">
          <mxGeometry relative="1" as="geometry">
            <Array as="points">
              <mxPoint x="208.33000000000004" y="1730" />
              <mxPoint x="208.33000000000004" y="1710" />
            </Array>
          </mxGeometry>
        </mxCell>
        <mxCell id="iq7f8JGCRkE5DKr1awx2-34" value="NAIP Imagery" style="strokeWidth=2;html=1;shape=mxgraph.flowchart.start_1;whiteSpace=wrap;fontSize=13;fontStyle=1;fillColor=#d5e8d4;strokeColor=#82b366;" parent="1" vertex="1">
          <mxGeometry x="29.999999999999986" y="1690" width="133.33" height="80" as="geometry" />
        </mxCell>
        <mxCell id="iq7f8JGCRkE5DKr1awx2-35" style="edgeStyle=orthogonalEdgeStyle;rounded=0;orthogonalLoop=1;jettySize=auto;html=1;exitX=1;exitY=0.5;exitDx=0;exitDy=0;exitPerimeter=0;entryX=0;entryY=0.5;entryDx=0;entryDy=0;" parent="1" source="iq7f8JGCRkE5DKr1awx2-36" target="iq7f8JGCRkE5DKr1awx2-40" edge="1">
          <mxGeometry relative="1" as="geometry" />
        </mxCell>
        <mxCell id="iq7f8JGCRkE5DKr1awx2-36" value="Year" style="strokeWidth=2;html=1;shape=mxgraph.flowchart.document2;whiteSpace=wrap;size=0.25;fillColor=#e1d5e7;strokeColor=#9673a6;" parent="1" vertex="1">
          <mxGeometry x="45" y="1590" width="103.33" height="70" as="geometry" />
        </mxCell>
        <mxCell id="iq7f8JGCRkE5DKr1awx2-37" style="edgeStyle=orthogonalEdgeStyle;rounded=0;orthogonalLoop=1;jettySize=auto;html=1;exitX=1;exitY=0.25;exitDx=0;exitDy=0;exitPerimeter=0;entryX=0;entryY=0.5;entryDx=0;entryDy=0;" parent="1" source="iq7f8JGCRkE5DKr1awx2-38" target="iq7f8JGCRkE5DKr1awx2-40" edge="1">
          <mxGeometry relative="1" as="geometry" />
        </mxCell>
        <mxCell id="iq7f8JGCRkE5DKr1awx2-38" value="Area of Interest" style="strokeWidth=2;html=1;shape=mxgraph.flowchart.document2;whiteSpace=wrap;size=0.25;fillColor=#e1d5e7;strokeColor=#9673a6;" parent="1" vertex="1">
          <mxGeometry x="48.33" y="1800" width="100" height="60" as="geometry" />
        </mxCell>
        <mxCell id="iq7f8JGCRkE5DKr1awx2-39" style="edgeStyle=orthogonalEdgeStyle;rounded=0;orthogonalLoop=1;jettySize=auto;html=1;exitX=1;exitY=0.5;exitDx=0;exitDy=0;" parent="1" source="iq7f8JGCRkE5DKr1awx2-40" target="iq7f8JGCRkE5DKr1awx2-49" edge="1">
          <mxGeometry relative="1" as="geometry" />
        </mxCell>
        <mxCell id="iq7f8JGCRkE5DKr1awx2-40" value="&lt;font style=&quot;font-size: 15px;&quot;&gt;&lt;b&gt;ProcessNAIP&lt;/b&gt;&lt;br&gt;select, clip, moasic, ndvi, other bands&lt;br&gt;&lt;/font&gt;" style="rounded=1;whiteSpace=wrap;html=1;absoluteArcSize=1;arcSize=14;strokeWidth=2;fillColor=#dae8fc;strokeColor=#6c8ebf;" parent="1" vertex="1">
          <mxGeometry x="268.33" y="1650" width="150" height="120" as="geometry" />
        </mxCell>
        <mxCell id="iq7f8JGCRkE5DKr1awx2-49" value="Multiband NAIP&amp;nbsp;" style="shape=parallelogram;html=1;strokeWidth=2;perimeter=parallelogramPerimeter;whiteSpace=wrap;rounded=1;arcSize=12;size=0.23;fontStyle=1;fillColor=#ffe6cc;strokeColor=#d79b00;" parent="1" vertex="1">
          <mxGeometry x="508.3299999999999" y="1671" width="160" height="68.57" as="geometry" />
        </mxCell>
        <mxCell id="iq7f8JGCRkE5DKr1awx2-50" style="edgeStyle=orthogonalEdgeStyle;rounded=0;orthogonalLoop=1;jettySize=auto;html=1;exitX=1;exitY=0.5;exitDx=0;exitDy=0;" parent="1" source="iq7f8JGCRkE5DKr1awx2-51" target="iq7f8JGCRkE5DKr1awx2-54" edge="1">
          <mxGeometry relative="1" as="geometry" />
        </mxCell>
        <mxCell id="iq7f8JGCRkE5DKr1awx2-51" value="&lt;font style=&quot;font-size: 15px;&quot;&gt;&lt;b&gt;snicModel&lt;/b&gt;&lt;br&gt;Define seeds, run segementation, project results&lt;br&gt;&lt;/font&gt;" style="rounded=1;whiteSpace=wrap;html=1;absoluteArcSize=1;arcSize=14;strokeWidth=2;fillColor=#dae8fc;strokeColor=#6c8ebf;" parent="1" vertex="1">
          <mxGeometry x="758.33" y="1470" width="210" height="160" as="geometry" />
        </mxCell>
        <mxCell id="iq7f8JGCRkE5DKr1awx2-52" style="edgeStyle=orthogonalEdgeStyle;rounded=0;orthogonalLoop=1;jettySize=auto;html=1;exitX=1;exitY=0.75;exitDx=0;exitDy=0;entryX=-0.001;entryY=0.694;entryDx=0;entryDy=0;entryPerimeter=0;" parent="1" source="iq7f8JGCRkE5DKr1awx2-49" target="iq7f8JGCRkE5DKr1awx2-51" edge="1">
          <mxGeometry relative="1" as="geometry" />
        </mxCell>
        <mxCell id="bEsAVYLafdhDXo3rLlMK-29" style="edgeStyle=orthogonalEdgeStyle;rounded=0;orthogonalLoop=1;jettySize=auto;html=1;exitX=0.5;exitY=0;exitDx=0;exitDy=0;" parent="1" source="iq7f8JGCRkE5DKr1awx2-54" target="bEsAVYLafdhDXo3rLlMK-3" edge="1">
          <mxGeometry relative="1" as="geometry" />
        </mxCell>
        <mxCell id="iq7f8JGCRkE5DKr1awx2-54" value="Clustered Images&lt;br&gt;&lt;span style=&quot;font-weight: normal;&quot;&gt;Mean values per object &lt;br&gt;recorded for each cell&lt;/span&gt;" style="shape=parallelogram;html=1;strokeWidth=2;perimeter=parallelogramPerimeter;whiteSpace=wrap;rounded=1;arcSize=12;size=0.23;fontStyle=1;fillColor=#ffe6cc;strokeColor=#d79b00;" parent="1" vertex="1">
          <mxGeometry x="1050" y="1550" width="210" height="130" as="geometry" />
        </mxCell>
        <mxCell id="bEsAVYLafdhDXo3rLlMK-7" style="edgeStyle=orthogonalEdgeStyle;rounded=0;orthogonalLoop=1;jettySize=auto;html=1;exitX=1;exitY=0.25;exitDx=0;exitDy=0;entryX=0;entryY=0.25;entryDx=0;entryDy=0;" parent="1" source="iq7f8JGCRkE5DKr1awx2-66" target="bEsAVYLafdhDXo3rLlMK-2" edge="1">
          <mxGeometry relative="1" as="geometry" />
        </mxCell>
        <mxCell id="iq7f8JGCRkE5DKr1awx2-66" value="&lt;font style=&quot;font-size: 15px;&quot;&gt;&lt;b&gt;RF classifier cluster&lt;/b&gt;&lt;br&gt;Develop model, apply to imagery&lt;br&gt;&lt;/font&gt;" style="rounded=1;whiteSpace=wrap;html=1;absoluteArcSize=1;arcSize=14;strokeWidth=2;fillColor=#dae8fc;strokeColor=#6c8ebf;" parent="1" vertex="1">
          <mxGeometry x="760" y="1250" width="190" height="100" as="geometry" />
        </mxCell>
        <mxCell id="iq7f8JGCRkE5DKr1awx2-77" value="&lt;font style=&quot;font-size: 15px;&quot;&gt;&lt;b&gt;validate on Test Data&amp;nbsp;&lt;br&gt;&lt;/b&gt;Evaluate the model on the testing data&lt;br&gt;&lt;/font&gt;" style="rounded=1;whiteSpace=wrap;html=1;absoluteArcSize=1;arcSize=14;strokeWidth=2;fillColor=#dae8fc;strokeColor=#6c8ebf;" parent="1" vertex="1">
          <mxGeometry x="1480" y="1130" width="100" height="100" as="geometry" />
        </mxCell>
        <mxCell id="iq7f8JGCRkE5DKr1awx2-80" value="&lt;font style=&quot;font-size: 16px;&quot;&gt;Apply the models&lt;br&gt;&lt;span style=&quot;font-weight: 400;&quot;&gt;The trained RF models are applied to the same paramerter set to generate the ensamble model. When the test/train data overlaps with the current area of interest, the individal and&amp;nbsp;&lt;/span&gt;&lt;br&gt;&lt;/font&gt;" style="rounded=0;whiteSpace=wrap;html=1;fillColor=#f8cecc;strokeColor=#b85450;fontStyle=1" parent="1" vertex="1">
          <mxGeometry x="45" y="1100" width="440" height="110" as="geometry" />
        </mxCell>
        <mxCell id="iq7f8JGCRkE5DKr1awx2-81" value="Training Data" style="shape=parallelogram;html=1;strokeWidth=2;perimeter=parallelogramPerimeter;whiteSpace=wrap;rounded=1;arcSize=12;size=0.23;fontStyle=1;fillColor=#ffe6cc;strokeColor=#d79b00;" parent="1" vertex="1">
          <mxGeometry x="1330" y="715.71" width="160" height="68.57" as="geometry" />
        </mxCell>
        <mxCell id="bEsAVYLafdhDXo3rLlMK-12" style="edgeStyle=orthogonalEdgeStyle;rounded=0;orthogonalLoop=1;jettySize=auto;html=1;exitX=0.75;exitY=0;exitDx=0;exitDy=0;entryX=0;entryY=0.5;entryDx=0;entryDy=0;" parent="1" source="bEsAVYLafdhDXo3rLlMK-2" target="iq7f8JGCRkE5DKr1awx2-77" edge="1">
          <mxGeometry relative="1" as="geometry" />
        </mxCell>
        <mxCell id="bEsAVYLafdhDXo3rLlMK-9" style="edgeStyle=orthogonalEdgeStyle;rounded=0;orthogonalLoop=1;jettySize=auto;html=1;exitX=1;exitY=0.5;exitDx=0;exitDy=0;" parent="1" source="bEsAVYLafdhDXo3rLlMK-2" edge="1">
          <mxGeometry relative="1" as="geometry">
            <mxPoint x="1640" y="1370" as="targetPoint" />
            <Array as="points">
              <mxPoint x="1565" y="1314" />
              <mxPoint x="1565" y="1370" />
              <mxPoint x="1626" y="1370" />
            </Array>
          </mxGeometry>
        </mxCell>
        <mxCell id="bEsAVYLafdhDXo3rLlMK-4" value="&lt;font style=&quot;font-size: 15px;&quot;&gt;&lt;b&gt;validate on Test Data&amp;nbsp;&lt;br&gt;&lt;/b&gt;Evaluate the model on the testing data&lt;br&gt;&lt;/font&gt;" style="rounded=1;whiteSpace=wrap;html=1;absoluteArcSize=1;arcSize=14;strokeWidth=2;fillColor=#dae8fc;strokeColor=#6c8ebf;" parent="1" vertex="1">
          <mxGeometry x="1080" y="1150" width="100" height="100" as="geometry" />
        </mxCell>
        <mxCell id="bEsAVYLafdhDXo3rLlMK-5" value="Ensamble Model" style="shape=parallelogram;html=1;strokeWidth=2;perimeter=parallelogramPerimeter;whiteSpace=wrap;rounded=1;arcSize=12;size=0.23;fontStyle=1;fillColor=#ffe6cc;strokeColor=#d79b00;" parent="1" vertex="1">
          <mxGeometry x="1610" y="1300" width="250" height="108.57" as="geometry" />
        </mxCell>
        <mxCell id="bEsAVYLafdhDXo3rLlMK-6" value="&lt;font style=&quot;font-size: 15px;&quot;&gt;&lt;b&gt;validate on Test Data&amp;nbsp;&lt;br&gt;&lt;/b&gt;Evaluate the model on the testing data&lt;br&gt;&lt;/font&gt;" style="rounded=1;whiteSpace=wrap;html=1;absoluteArcSize=1;arcSize=14;strokeWidth=2;fillColor=#dae8fc;strokeColor=#6c8ebf;" parent="1" vertex="1">
          <mxGeometry x="1720" y="1130" width="100" height="100" as="geometry" />
        </mxCell>
        <mxCell id="bEsAVYLafdhDXo3rLlMK-13" style="edgeStyle=orthogonalEdgeStyle;rounded=0;orthogonalLoop=1;jettySize=auto;html=1;exitX=0.5;exitY=0;exitDx=0;exitDy=0;entryX=0.42;entryY=1.01;entryDx=0;entryDy=0;entryPerimeter=0;" parent="1" source="bEsAVYLafdhDXo3rLlMK-5" target="bEsAVYLafdhDXo3rLlMK-6" edge="1">
          <mxGeometry relative="1" as="geometry" />
        </mxCell>
        <mxCell id="bEsAVYLafdhDXo3rLlMK-21" style="edgeStyle=orthogonalEdgeStyle;rounded=0;orthogonalLoop=1;jettySize=auto;html=1;exitX=1;exitY=0.5;exitDx=0;exitDy=0;entryX=0;entryY=0;entryDx=0;entryDy=0;" parent="1" source="bEsAVYLafdhDXo3rLlMK-16" target="bEsAVYLafdhDXo3rLlMK-3" edge="1">
          <mxGeometry relative="1" as="geometry" />
        </mxCell>
        <mxCell id="bEsAVYLafdhDXo3rLlMK-16" value="&lt;font style=&quot;font-size: 15px;&quot;&gt;&lt;b&gt;RF classifier pixel&lt;/b&gt;&lt;br&gt;Develop model, apply to imagery&lt;br&gt;&lt;/font&gt;" style="rounded=1;whiteSpace=wrap;html=1;absoluteArcSize=1;arcSize=14;strokeWidth=2;fillColor=#dae8fc;strokeColor=#6c8ebf;" parent="1" vertex="1">
          <mxGeometry x="758.33" y="1360" width="191.67" height="100" as="geometry" />
        </mxCell>
        <mxCell id="bEsAVYLafdhDXo3rLlMK-23" style="edgeStyle=orthogonalEdgeStyle;rounded=0;orthogonalLoop=1;jettySize=auto;html=1;exitX=1;exitY=0.5;exitDx=0;exitDy=0;exitPerimeter=0;entryX=0;entryY=0.25;entryDx=0;entryDy=0;" parent="1" source="bEsAVYLafdhDXo3rLlMK-17" target="bEsAVYLafdhDXo3rLlMK-18" edge="1">
          <mxGeometry relative="1" as="geometry" />
        </mxCell>
        <mxCell id="bEsAVYLafdhDXo3rLlMK-25" style="edgeStyle=orthogonalEdgeStyle;rounded=0;orthogonalLoop=1;jettySize=auto;html=1;exitX=0.855;exitY=0.145;exitDx=0;exitDy=0;exitPerimeter=0;entryX=0;entryY=0.5;entryDx=0;entryDy=0;" parent="1" source="bEsAVYLafdhDXo3rLlMK-17" target="bEsAVYLafdhDXo3rLlMK-24" edge="1">
          <mxGeometry relative="1" as="geometry">
            <Array as="points">
              <mxPoint x="244" y="1310" />
              <mxPoint x="600" y="1310" />
              <mxPoint x="600" y="1060" />
              <mxPoint x="1238" y="1060" />
            </Array>
          </mxGeometry>
        </mxCell>
        <mxCell id="bEsAVYLafdhDXo3rLlMK-17" value="Training Data&lt;br&gt;" style="strokeWidth=2;html=1;shape=mxgraph.flowchart.start_1;whiteSpace=wrap;fontSize=13;fontStyle=1;fillColor=#d5e8d4;strokeColor=#82b366;" parent="1" vertex="1">
          <mxGeometry x="130" y="1368.57" width="133.33" height="80" as="geometry" />
        </mxCell>
        <mxCell id="bEsAVYLafdhDXo3rLlMK-20" value="" style="edgeStyle=orthogonalEdgeStyle;rounded=0;orthogonalLoop=1;jettySize=auto;html=1;entryX=0;entryY=0.5;entryDx=0;entryDy=0;" parent="1" source="bEsAVYLafdhDXo3rLlMK-18" target="bEsAVYLafdhDXo3rLlMK-16" edge="1">
          <mxGeometry relative="1" as="geometry">
            <mxPoint x="660" y="1394.2849999999999" as="targetPoint" />
          </mxGeometry>
        </mxCell>
        <mxCell id="bEsAVYLafdhDXo3rLlMK-18" value="Training Split" style="shape=parallelogram;html=1;strokeWidth=2;perimeter=parallelogramPerimeter;whiteSpace=wrap;rounded=1;arcSize=12;size=0.23;fontStyle=1;fillColor=#ffe6cc;strokeColor=#d79b00;" parent="1" vertex="1">
          <mxGeometry x="399.99999999999994" y="1360" width="160" height="68.57" as="geometry" />
        </mxCell>
        <mxCell id="bEsAVYLafdhDXo3rLlMK-22" style="edgeStyle=orthogonalEdgeStyle;rounded=0;orthogonalLoop=1;jettySize=auto;html=1;exitX=1;exitY=0.25;exitDx=0;exitDy=0;entryX=0;entryY=0.25;entryDx=0;entryDy=0;" parent="1" source="bEsAVYLafdhDXo3rLlMK-18" target="iq7f8JGCRkE5DKr1awx2-66" edge="1">
          <mxGeometry relative="1" as="geometry" />
        </mxCell>
        <mxCell id="bEsAVYLafdhDXo3rLlMK-32" style="edgeStyle=orthogonalEdgeStyle;rounded=0;orthogonalLoop=1;jettySize=auto;html=1;exitX=0;exitY=1;exitDx=0;exitDy=0;entryX=0.75;entryY=0;entryDx=0;entryDy=0;" parent="1" source="bEsAVYLafdhDXo3rLlMK-24" target="bEsAVYLafdhDXo3rLlMK-4" edge="1">
          <mxGeometry relative="1" as="geometry" />
        </mxCell>
        <mxCell id="bEsAVYLafdhDXo3rLlMK-33" style="edgeStyle=orthogonalEdgeStyle;rounded=0;orthogonalLoop=1;jettySize=auto;html=1;exitX=0.5;exitY=1;exitDx=0;exitDy=0;entryX=0;entryY=0.25;entryDx=0;entryDy=0;" parent="1" source="bEsAVYLafdhDXo3rLlMK-24" target="iq7f8JGCRkE5DKr1awx2-77" edge="1">
          <mxGeometry relative="1" as="geometry" />
        </mxCell>
        <mxCell id="bEsAVYLafdhDXo3rLlMK-34" style="edgeStyle=orthogonalEdgeStyle;rounded=0;orthogonalLoop=1;jettySize=auto;html=1;exitX=1;exitY=0.75;exitDx=0;exitDy=0;entryX=0.5;entryY=0;entryDx=0;entryDy=0;" parent="1" source="bEsAVYLafdhDXo3rLlMK-24" target="bEsAVYLafdhDXo3rLlMK-6" edge="1">
          <mxGeometry relative="1" as="geometry" />
        </mxCell>
        <mxCell id="bEsAVYLafdhDXo3rLlMK-24" value="Testing Split" style="shape=parallelogram;html=1;strokeWidth=2;perimeter=parallelogramPerimeter;whiteSpace=wrap;rounded=1;arcSize=12;size=0.23;fontStyle=1;fillColor=#ffe6cc;strokeColor=#d79b00;" parent="1" vertex="1">
          <mxGeometry x="1220" y="1020" width="160" height="68.57" as="geometry" />
        </mxCell>
        <mxCell id="bEsAVYLafdhDXo3rLlMK-27" style="edgeStyle=orthogonalEdgeStyle;rounded=0;orthogonalLoop=1;jettySize=auto;html=1;exitX=0.5;exitY=0;exitDx=0;exitDy=0;entryX=0.5;entryY=1;entryDx=0;entryDy=0;" parent="1" source="bEsAVYLafdhDXo3rLlMK-3" target="bEsAVYLafdhDXo3rLlMK-4" edge="1">
          <mxGeometry relative="1" as="geometry" />
        </mxCell>
        <mxCell id="bEsAVYLafdhDXo3rLlMK-3" value="Pixel Based model" style="shape=parallelogram;html=1;strokeWidth=2;perimeter=parallelogramPerimeter;whiteSpace=wrap;rounded=1;arcSize=12;size=0.23;fontStyle=1;fillColor=#ffe6cc;strokeColor=#d79b00;" parent="1" vertex="1">
          <mxGeometry x="1001.6600000000001" y="1368.5699999999997" width="250" height="108.57" as="geometry" />
        </mxCell>
        <mxCell id="bEsAVYLafdhDXo3rLlMK-2" value="Cluster Model" style="shape=parallelogram;html=1;strokeWidth=2;perimeter=parallelogramPerimeter;whiteSpace=wrap;rounded=1;arcSize=12;size=0.23;fontStyle=1;fillColor=#ffe6cc;strokeColor=#d79b00;" parent="1" vertex="1">
          <mxGeometry x="1270" y="1260" width="250" height="108.57" as="geometry" />
        </mxCell>
        <mxCell id="bEsAVYLafdhDXo3rLlMK-30" style="edgeStyle=orthogonalEdgeStyle;rounded=0;orthogonalLoop=1;jettySize=auto;html=1;exitX=1;exitY=0.5;exitDx=0;exitDy=0;entryX=0.416;entryY=0.991;entryDx=0;entryDy=0;entryPerimeter=0;" parent="1" source="iq7f8JGCRkE5DKr1awx2-54" target="bEsAVYLafdhDXo3rLlMK-2" edge="1">
          <mxGeometry relative="1" as="geometry" />
        </mxCell>
        <mxCell id="bEsAVYLafdhDXo3rLlMK-31" style="edgeStyle=orthogonalEdgeStyle;rounded=0;orthogonalLoop=1;jettySize=auto;html=1;exitX=1;exitY=0.5;exitDx=0;exitDy=0;entryX=0.12;entryY=0.617;entryDx=0;entryDy=0;entryPerimeter=0;" parent="1" source="bEsAVYLafdhDXo3rLlMK-3" target="bEsAVYLafdhDXo3rLlMK-5" edge="1">
          <mxGeometry relative="1" as="geometry">
            <Array as="points">
              <mxPoint x="1530" y="1423" />
              <mxPoint x="1530" y="1370" />
              <mxPoint x="1640" y="1370" />
            </Array>
          </mxGeometry>
        </mxCell>
        <mxCell id="liSVJQE5td0kBmPYtOs_-1" value="NAIP Imagery" style="strokeWidth=2;html=1;shape=mxgraph.flowchart.start_1;whiteSpace=wrap;fontSize=13;fontStyle=1;fillColor=#d5e8d4;strokeColor=#82b366;" parent="1" vertex="1">
          <mxGeometry x="53.329999999999984" y="2270" width="133.33" height="80" as="geometry" />
        </mxCell>
        <mxCell id="liSVJQE5td0kBmPYtOs_-12" style="edgeStyle=orthogonalEdgeStyle;rounded=0;orthogonalLoop=1;jettySize=auto;html=1;exitX=1;exitY=0.5;exitDx=0;exitDy=0;exitPerimeter=0;entryX=0;entryY=0.5;entryDx=0;entryDy=0;strokeWidth=3;" parent="1" source="liSVJQE5td0kBmPYtOs_-2" target="liSVJQE5td0kBmPYtOs_-4" edge="1">
          <mxGeometry relative="1" as="geometry" />
        </mxCell>
        <mxCell id="liSVJQE5td0kBmPYtOs_-2" value="Training Data&lt;br&gt;" style="strokeWidth=2;html=1;shape=mxgraph.flowchart.start_1;whiteSpace=wrap;fontSize=13;fontStyle=1;fillColor=#d5e8d4;strokeColor=#82b366;" parent="1" vertex="1">
          <mxGeometry x="53.33" y="2160" width="133.33" height="80" as="geometry" />
        </mxCell>
        <mxCell id="liSVJQE5td0kBmPYtOs_-15" style="edgeStyle=orthogonalEdgeStyle;rounded=0;orthogonalLoop=1;jettySize=auto;html=1;exitX=0.5;exitY=1;exitDx=0;exitDy=0;entryX=0;entryY=0.75;entryDx=0;entryDy=0;strokeWidth=3;" parent="1" source="liSVJQE5td0kBmPYtOs_-3" target="liSVJQE5td0kBmPYtOs_-6" edge="1">
          <mxGeometry relative="1" as="geometry" />
        </mxCell>
        <mxCell id="liSVJQE5td0kBmPYtOs_-3" value="&lt;font style=&quot;font-size: 15px;&quot;&gt;&lt;b&gt;ProcessNAIP&lt;/b&gt;&lt;br&gt;select, clip, moasic, ndvi, other bands&lt;br&gt;&lt;/font&gt;" style="rounded=1;whiteSpace=wrap;html=1;absoluteArcSize=1;arcSize=14;strokeWidth=2;fillColor=#dae8fc;strokeColor=#6c8ebf;" parent="1" vertex="1">
          <mxGeometry x="248.33" y="2260" width="150" height="120" as="geometry" />
        </mxCell>
        <mxCell id="liSVJQE5td0kBmPYtOs_-20" style="edgeStyle=orthogonalEdgeStyle;rounded=0;orthogonalLoop=1;jettySize=auto;html=1;exitX=1;exitY=0.5;exitDx=0;exitDy=0;entryX=0;entryY=0.5;entryDx=0;entryDy=0;strokeWidth=3;" parent="1" source="liSVJQE5td0kBmPYtOs_-4" target="liSVJQE5td0kBmPYtOs_-9" edge="1">
          <mxGeometry relative="1" as="geometry" />
        </mxCell>
        <mxCell id="liSVJQE5td0kBmPYtOs_-4" value="Test/Train Split" style="shape=parallelogram;html=1;strokeWidth=2;perimeter=parallelogramPerimeter;whiteSpace=wrap;rounded=1;arcSize=12;size=0.23;fontStyle=1;fillColor=#ffe6cc;strokeColor=#d79b00;" parent="1" vertex="1">
          <mxGeometry x="248.32999999999996" y="2165.7200000000003" width="160" height="68.57" as="geometry" />
        </mxCell>
        <mxCell id="liSVJQE5td0kBmPYtOs_-16" style="edgeStyle=orthogonalEdgeStyle;rounded=0;orthogonalLoop=1;jettySize=auto;html=1;exitX=1;exitY=0.5;exitDx=0;exitDy=0;entryX=0;entryY=0.5;entryDx=0;entryDy=0;strokeWidth=3;" parent="1" source="liSVJQE5td0kBmPYtOs_-5" target="liSVJQE5td0kBmPYtOs_-7" edge="1">
          <mxGeometry relative="1" as="geometry" />
        </mxCell>
        <mxCell id="k1s0kApw1L8e37VxQRg--2" style="edgeStyle=orthogonalEdgeStyle;rounded=0;orthogonalLoop=1;jettySize=auto;html=1;exitX=0.5;exitY=1;exitDx=0;exitDy=0;entryX=0.5;entryY=0;entryDx=0;entryDy=0;strokeWidth=3;" parent="1" source="liSVJQE5td0kBmPYtOs_-5" target="liSVJQE5td0kBmPYtOs_-6" edge="1">
          <mxGeometry relative="1" as="geometry" />
        </mxCell>
        <mxCell id="liSVJQE5td0kBmPYtOs_-5" value="&lt;font style=&quot;font-size: 15px;&quot;&gt;&lt;b&gt;snicModel(cluster)&lt;/b&gt;&lt;br&gt;Define seeds, run segementation, project results&lt;br&gt;&lt;/font&gt;" style="rounded=1;whiteSpace=wrap;html=1;absoluteArcSize=1;arcSize=14;strokeWidth=2;fillColor=#dae8fc;strokeColor=#6c8ebf;" parent="1" vertex="1">
          <mxGeometry x="491.66" y="2260" width="210" height="130" as="geometry" />
        </mxCell>
        <mxCell id="liSVJQE5td0kBmPYtOs_-6" value="&lt;font style=&quot;font-size: 15px;&quot;&gt;&lt;b&gt;RF classifier pixel&lt;/b&gt;&lt;br&gt;Develop model, apply to imagery&lt;br&gt;&lt;/font&gt;" style="rounded=1;whiteSpace=wrap;html=1;absoluteArcSize=1;arcSize=14;strokeWidth=2;fillColor=#dae8fc;strokeColor=#6c8ebf;" parent="1" vertex="1">
          <mxGeometry x="496.65999999999997" y="2450" width="191.67" height="100" as="geometry" />
        </mxCell>
        <mxCell id="liSVJQE5td0kBmPYtOs_-18" style="edgeStyle=orthogonalEdgeStyle;rounded=0;orthogonalLoop=1;jettySize=auto;html=1;exitX=0.5;exitY=1;exitDx=0;exitDy=0;entryX=0;entryY=0.5;entryDx=0;entryDy=0;strokeWidth=3;" parent="1" source="liSVJQE5td0kBmPYtOs_-7" target="liSVJQE5td0kBmPYtOs_-10" edge="1">
          <mxGeometry relative="1" as="geometry" />
        </mxCell>
        <mxCell id="liSVJQE5td0kBmPYtOs_-7" value="&lt;font style=&quot;font-size: 15px;&quot;&gt;&lt;b&gt;RF classifier cluster&lt;/b&gt;&lt;br&gt;Develop model, apply to imagery&lt;br&gt;&lt;/font&gt;" style="rounded=1;whiteSpace=wrap;html=1;absoluteArcSize=1;arcSize=14;strokeWidth=2;fillColor=#dae8fc;strokeColor=#6c8ebf;" parent="1" vertex="1">
          <mxGeometry x="748.33" y="2274.2799999999997" width="190" height="100" as="geometry" />
        </mxCell>
        <mxCell id="liSVJQE5td0kBmPYtOs_-19" style="edgeStyle=orthogonalEdgeStyle;rounded=0;orthogonalLoop=1;jettySize=auto;html=1;exitX=0.5;exitY=1;exitDx=0;exitDy=0;entryX=0.5;entryY=0;entryDx=0;entryDy=0;strokeWidth=3;" parent="1" source="liSVJQE5td0kBmPYtOs_-9" target="liSVJQE5td0kBmPYtOs_-10" edge="1">
          <mxGeometry relative="1" as="geometry">
            <Array as="points">
              <mxPoint x="1083.33" y="2250" />
            </Array>
          </mxGeometry>
        </mxCell>
        <mxCell id="liSVJQE5td0kBmPYtOs_-9" value="&lt;font style=&quot;font-size: 15px;&quot;&gt;&lt;b&gt;validate on Test Data&amp;nbsp;&lt;br&gt;&lt;/b&gt;Evaluate the model on the testing data&lt;br&gt;&lt;/font&gt;" style="rounded=1;whiteSpace=wrap;html=1;absoluteArcSize=1;arcSize=14;strokeWidth=2;fillColor=#ffe6cc;strokeColor=#d79b00;" parent="1" vertex="1">
          <mxGeometry x="1048.33" y="2150" width="100" height="100" as="geometry" />
        </mxCell>
        <mxCell id="liSVJQE5td0kBmPYtOs_-10" value="Ensamble Model" style="shape=parallelogram;html=1;strokeWidth=2;perimeter=parallelogramPerimeter;whiteSpace=wrap;rounded=1;arcSize=12;size=0.23;fontStyle=1;fillColor=#ffe6cc;strokeColor=#d79b00;" parent="1" vertex="1">
          <mxGeometry x="958.33" y="2370" width="250" height="108.57" as="geometry" />
        </mxCell>
        <mxCell id="liSVJQE5td0kBmPYtOs_-13" style="edgeStyle=orthogonalEdgeStyle;rounded=0;orthogonalLoop=1;jettySize=auto;html=1;exitX=1;exitY=0.5;exitDx=0;exitDy=0;exitPerimeter=0;entryX=0;entryY=0.417;entryDx=0;entryDy=0;entryPerimeter=0;strokeWidth=3;" parent="1" source="liSVJQE5td0kBmPYtOs_-1" target="liSVJQE5td0kBmPYtOs_-3" edge="1">
          <mxGeometry relative="1" as="geometry" />
        </mxCell>
        <mxCell id="liSVJQE5td0kBmPYtOs_-14" style="edgeStyle=orthogonalEdgeStyle;rounded=0;orthogonalLoop=1;jettySize=auto;html=1;entryX=-0.01;entryY=0.461;entryDx=0;entryDy=0;entryPerimeter=0;strokeWidth=3;exitX=1;exitY=0.5;exitDx=0;exitDy=0;" parent="1" source="liSVJQE5td0kBmPYtOs_-3" target="liSVJQE5td0kBmPYtOs_-5" edge="1">
          <mxGeometry relative="1" as="geometry">
            <mxPoint x="398.33" y="2310" as="sourcePoint" />
          </mxGeometry>
        </mxCell>
        <mxCell id="liSVJQE5td0kBmPYtOs_-17" style="edgeStyle=orthogonalEdgeStyle;rounded=0;orthogonalLoop=1;jettySize=auto;html=1;exitX=1;exitY=0.5;exitDx=0;exitDy=0;entryX=0.076;entryY=0.617;entryDx=0;entryDy=0;entryPerimeter=0;strokeWidth=3;" parent="1" source="liSVJQE5td0kBmPYtOs_-6" target="liSVJQE5td0kBmPYtOs_-10" edge="1">
          <mxGeometry relative="1" as="geometry" />
        </mxCell>
        <mxCell id="k1s0kApw1L8e37VxQRg--1" value="&lt;font style=&quot;font-size: 16px;&quot;&gt;&lt;b&gt;Core Compoments&lt;br&gt;&lt;/b&gt;A streamline version of the classification workflow for conversation purposes&amp;nbsp;&lt;br&gt;&lt;/font&gt;" style="rounded=0;whiteSpace=wrap;html=1;fillColor=#f8cecc;strokeColor=#b85450;" parent="1" vertex="1">
          <mxGeometry x="48.33" y="1950" width="440" height="110" as="geometry" />
        </mxCell>
      </root>
    </mxGraphModel>
  </diagram>
  <diagram name="simplified workflow 20240116" id="Ukv0JTuuzYyGzYlE5z8_">
    <mxGraphModel dx="2954" dy="1204" grid="1" gridSize="10" guides="1" tooltips="1" connect="1" arrows="1" fold="1" page="1" pageScale="1" pageWidth="1700" pageHeight="1100" math="0" shadow="0">
      <root>
        <mxCell id="JFfCO8q_ADzKK6mXp7AL-0" />
        <mxCell id="JFfCO8q_ADzKK6mXp7AL-1" parent="JFfCO8q_ADzKK6mXp7AL-0" />
        <mxCell id="JFfCO8q_ADzKK6mXp7AL-2" value="Input Dataset" style="strokeWidth=2;html=1;shape=mxgraph.flowchart.start_1;whiteSpace=wrap;fontSize=13;fontStyle=1;fillColor=#d5e8d4;strokeColor=#82b366;" vertex="1" parent="JFfCO8q_ADzKK6mXp7AL-1">
          <mxGeometry x="30" y="115.72" width="133.33" height="80" as="geometry" />
        </mxCell>
        <mxCell id="JFfCO8q_ADzKK6mXp7AL-3" value="&lt;b style=&quot;font-size: 30px;&quot;&gt;Workflow summary of the Agroforestry Modeling Effort&lt;br&gt;&lt;/b&gt;" style="text;html=1;align=center;verticalAlign=middle;resizable=0;points=[];autosize=1;strokeColor=none;fillColor=none;" vertex="1" parent="JFfCO8q_ADzKK6mXp7AL-1">
          <mxGeometry x="20" y="40" width="810" height="50" as="geometry" />
        </mxCell>
        <mxCell id="JFfCO8q_ADzKK6mXp7AL-4" value="Output Data&lt;br&gt;" style="shape=parallelogram;html=1;strokeWidth=2;perimeter=parallelogramPerimeter;whiteSpace=wrap;rounded=1;arcSize=12;size=0.23;fontStyle=1;fillColor=#ffe6cc;strokeColor=#d79b00;" vertex="1" parent="JFfCO8q_ADzKK6mXp7AL-1">
          <mxGeometry x="360" y="112.86000000000001" width="160" height="68.57" as="geometry" />
        </mxCell>
        <mxCell id="JFfCO8q_ADzKK6mXp7AL-5" value="&lt;b&gt;&lt;font style=&quot;font-size: 15px;&quot;&gt;Function&lt;/font&gt;&lt;/b&gt;" style="rounded=1;whiteSpace=wrap;html=1;absoluteArcSize=1;arcSize=14;strokeWidth=2;fillColor=#dae8fc;strokeColor=#6c8ebf;" vertex="1" parent="JFfCO8q_ADzKK6mXp7AL-1">
          <mxGeometry x="210" y="101.43" width="100" height="100" as="geometry" />
        </mxCell>
        <mxCell id="JFfCO8q_ADzKK6mXp7AL-6" value="Parameter" style="strokeWidth=2;html=1;shape=mxgraph.flowchart.document2;whiteSpace=wrap;size=0.25;fillColor=#e1d5e7;strokeColor=#9673a6;" vertex="1" parent="JFfCO8q_ADzKK6mXp7AL-1">
          <mxGeometry x="600" y="121.43" width="100" height="60" as="geometry" />
        </mxCell>
        <mxCell id="JFfCO8q_ADzKK6mXp7AL-7" value="&lt;font style=&quot;font-size: 16px;&quot;&gt;&lt;b&gt;Developing the training data&lt;/b&gt;&lt;br&gt;Training data will be gather from a specific location and then applied to multiple locations outside of the original sampling AOI. Therefore the initial workflow is independent of the applying and testing of the models.&amp;nbsp;&amp;nbsp;&lt;br&gt;&lt;/font&gt;" style="rounded=0;whiteSpace=wrap;html=1;fillColor=#f8cecc;strokeColor=#b85450;" vertex="1" parent="JFfCO8q_ADzKK6mXp7AL-1">
          <mxGeometry x="48.33" y="270" width="440" height="110" as="geometry" />
        </mxCell>
        <mxCell id="JFfCO8q_ADzKK6mXp7AL-8" value="G" style="group" vertex="1" connectable="0" parent="JFfCO8q_ADzKK6mXp7AL-1">
          <mxGeometry x="53.33" y="410" width="238.33" height="300" as="geometry" />
        </mxCell>
        <mxCell id="JFfCO8q_ADzKK6mXp7AL-9" value="NAIP Imagery" style="strokeWidth=2;html=1;shape=mxgraph.flowchart.start_1;whiteSpace=wrap;fontSize=13;fontStyle=1;fillColor=#d5e8d4;strokeColor=#82b366;" vertex="1" parent="JFfCO8q_ADzKK6mXp7AL-8">
          <mxGeometry y="100" width="133.33" height="80" as="geometry" />
        </mxCell>
        <mxCell id="JFfCO8q_ADzKK6mXp7AL-10" value="Year" style="strokeWidth=2;html=1;shape=mxgraph.flowchart.document2;whiteSpace=wrap;size=0.25;fillColor=#e1d5e7;strokeColor=#9673a6;" vertex="1" parent="JFfCO8q_ADzKK6mXp7AL-8">
          <mxGeometry x="15.000000000000014" width="103.33" height="70" as="geometry" />
        </mxCell>
        <mxCell id="dRKn9hm-ySShKKEn5I2S-0" value="Sampling Grid" style="strokeWidth=2;html=1;shape=mxgraph.flowchart.start_1;whiteSpace=wrap;fontSize=13;fontStyle=1;fillColor=#d5e8d4;strokeColor=#82b366;" vertex="1" parent="JFfCO8q_ADzKK6mXp7AL-8">
          <mxGeometry y="220" width="133.33" height="80" as="geometry" />
        </mxCell>
        <mxCell id="JFfCO8q_ADzKK6mXp7AL-11" style="edgeStyle=orthogonalEdgeStyle;rounded=0;orthogonalLoop=1;jettySize=auto;html=1;exitX=1;exitY=0.5;exitDx=0;exitDy=0;exitPerimeter=0;entryX=0;entryY=0.5;entryDx=0;entryDy=0;" edge="1" parent="JFfCO8q_ADzKK6mXp7AL-1" source="JFfCO8q_ADzKK6mXp7AL-14" target="JFfCO8q_ADzKK6mXp7AL-26">
          <mxGeometry relative="1" as="geometry">
            <mxPoint x="292.3000000000002" y="716.2900000000004" as="targetPoint" />
            <Array as="points">
              <mxPoint x="187" y="780" />
            </Array>
          </mxGeometry>
        </mxCell>
        <mxCell id="JFfCO8q_ADzKK6mXp7AL-14" value="PA datasets" style="strokeWidth=2;html=1;shape=mxgraph.flowchart.start_1;whiteSpace=wrap;fontSize=13;fontStyle=1;fillColor=#d5e8d4;strokeColor=#82b366;" vertex="1" parent="JFfCO8q_ADzKK6mXp7AL-1">
          <mxGeometry x="53.33" y="750" width="133.33" height="80" as="geometry" />
        </mxCell>
        <mxCell id="JFfCO8q_ADzKK6mXp7AL-15" style="edgeStyle=orthogonalEdgeStyle;rounded=0;orthogonalLoop=1;jettySize=auto;html=1;exitX=1;exitY=0.5;exitDx=0;exitDy=0;entryX=0;entryY=0.5;entryDx=0;entryDy=0;" edge="1" parent="JFfCO8q_ADzKK6mXp7AL-1" source="JFfCO8q_ADzKK6mXp7AL-16" target="JFfCO8q_ADzKK6mXp7AL-20">
          <mxGeometry relative="1" as="geometry" />
        </mxCell>
        <mxCell id="JFfCO8q_ADzKK6mXp7AL-16" value="&lt;font style=&quot;font-size: 15px;&quot;&gt;&lt;b&gt;ProcessNAIP&lt;/b&gt;&lt;br&gt;select, clip, moasic, ndvi, other bands&lt;br&gt;&lt;/font&gt;" style="rounded=1;whiteSpace=wrap;html=1;absoluteArcSize=1;arcSize=14;strokeWidth=4;fillColor=#dae8fc;strokeColor=#FF7700;" vertex="1" parent="JFfCO8q_ADzKK6mXp7AL-1">
          <mxGeometry x="291.66" y="450" width="150" height="120" as="geometry" />
        </mxCell>
        <mxCell id="JFfCO8q_ADzKK6mXp7AL-17" style="edgeStyle=orthogonalEdgeStyle;rounded=0;orthogonalLoop=1;jettySize=auto;html=1;exitX=1;exitY=0.5;exitDx=0;exitDy=0;exitPerimeter=0;entryX=0;entryY=0.5;entryDx=0;entryDy=0;" edge="1" parent="JFfCO8q_ADzKK6mXp7AL-1" source="JFfCO8q_ADzKK6mXp7AL-10" target="JFfCO8q_ADzKK6mXp7AL-16">
          <mxGeometry relative="1" as="geometry">
            <mxPoint x="291.66" y="530" as="targetPoint" />
          </mxGeometry>
        </mxCell>
        <mxCell id="JFfCO8q_ADzKK6mXp7AL-18" style="edgeStyle=orthogonalEdgeStyle;rounded=0;orthogonalLoop=1;jettySize=auto;html=1;exitX=1;exitY=0.5;exitDx=0;exitDy=0;exitPerimeter=0;entryX=0;entryY=0.5;entryDx=0;entryDy=0;" edge="1" parent="JFfCO8q_ADzKK6mXp7AL-1" source="JFfCO8q_ADzKK6mXp7AL-9" target="JFfCO8q_ADzKK6mXp7AL-16">
          <mxGeometry relative="1" as="geometry">
            <Array as="points">
              <mxPoint x="231.66000000000003" y="550" />
              <mxPoint x="231.66000000000003" y="510" />
            </Array>
            <mxPoint x="291.66" y="530" as="targetPoint" />
          </mxGeometry>
        </mxCell>
        <mxCell id="JFfCO8q_ADzKK6mXp7AL-19" style="edgeStyle=orthogonalEdgeStyle;rounded=0;orthogonalLoop=1;jettySize=auto;html=1;exitX=1;exitY=0.5;exitDx=0;exitDy=0;entryX=0;entryY=0.5;entryDx=0;entryDy=0;" edge="1" parent="JFfCO8q_ADzKK6mXp7AL-1" source="JFfCO8q_ADzKK6mXp7AL-20" target="JFfCO8q_ADzKK6mXp7AL-24">
          <mxGeometry relative="1" as="geometry">
            <mxPoint x="795.81" y="510" as="targetPoint" />
          </mxGeometry>
        </mxCell>
        <mxCell id="JFfCO8q_ADzKK6mXp7AL-20" value="&lt;font style=&quot;font-size: 15px;&quot;&gt;&lt;b&gt;snicModel&lt;/b&gt;&lt;br&gt;Define seeds, run segementation, project results&lt;br&gt;&lt;/font&gt;" style="rounded=1;whiteSpace=wrap;html=1;absoluteArcSize=1;arcSize=14;strokeWidth=4;fillColor=#dae8fc;strokeColor=#FF7700;" vertex="1" parent="JFfCO8q_ADzKK6mXp7AL-1">
          <mxGeometry x="508.3299999999999" y="430" width="210" height="160" as="geometry" />
        </mxCell>
        <mxCell id="JFfCO8q_ADzKK6mXp7AL-23" style="edgeStyle=orthogonalEdgeStyle;rounded=0;orthogonalLoop=1;jettySize=auto;html=1;exitX=0.5;exitY=1;exitDx=0;exitDy=0;entryX=0.5;entryY=0;entryDx=0;entryDy=0;" edge="1" parent="JFfCO8q_ADzKK6mXp7AL-1" source="JFfCO8q_ADzKK6mXp7AL-24" target="JFfCO8q_ADzKK6mXp7AL-26">
          <mxGeometry relative="1" as="geometry" />
        </mxCell>
        <mxCell id="JFfCO8q_ADzKK6mXp7AL-24" value="NAIP and Cluster Bands" style="shape=parallelogram;html=1;strokeWidth=2;perimeter=parallelogramPerimeter;whiteSpace=wrap;rounded=1;arcSize=12;size=0.23;fontStyle=1;fillColor=#ffe6cc;strokeColor=#d79b00;" vertex="1" parent="JFfCO8q_ADzKK6mXp7AL-1">
          <mxGeometry x="830" y="455.71" width="250" height="108.57" as="geometry" />
        </mxCell>
        <mxCell id="dRKn9hm-ySShKKEn5I2S-8" style="edgeStyle=orthogonalEdgeStyle;rounded=0;orthogonalLoop=1;jettySize=auto;html=1;exitX=1;exitY=0.5;exitDx=0;exitDy=0;" edge="1" parent="JFfCO8q_ADzKK6mXp7AL-1" source="JFfCO8q_ADzKK6mXp7AL-26" target="dRKn9hm-ySShKKEn5I2S-7">
          <mxGeometry relative="1" as="geometry" />
        </mxCell>
        <mxCell id="JFfCO8q_ADzKK6mXp7AL-26" value="&lt;font style=&quot;font-size: 15px;&quot;&gt;&lt;b&gt;Extract Values&lt;/b&gt;&lt;br&gt;gather values for the test and train sets&lt;br&gt;&lt;/font&gt;" style="rounded=1;whiteSpace=wrap;html=1;absoluteArcSize=1;arcSize=14;strokeWidth=4;fillColor=#dae8fc;strokeColor=#FF7700;" vertex="1" parent="JFfCO8q_ADzKK6mXp7AL-1">
          <mxGeometry x="840" y="730" width="230" height="100" as="geometry" />
        </mxCell>
        <mxCell id="JFfCO8q_ADzKK6mXp7AL-27" value="SNIC model Parameters" style="strokeWidth=2;html=1;shape=mxgraph.flowchart.document2;whiteSpace=wrap;size=0.25;fillColor=#e1d5e7;strokeColor=#9673a6;" vertex="1" parent="JFfCO8q_ADzKK6mXp7AL-1">
          <mxGeometry x="508.3300000000001" y="320" width="103.33" height="70" as="geometry" />
        </mxCell>
        <mxCell id="JFfCO8q_ADzKK6mXp7AL-28" style="edgeStyle=orthogonalEdgeStyle;rounded=0;orthogonalLoop=1;jettySize=auto;html=1;exitX=1;exitY=0.75;exitDx=0;exitDy=0;exitPerimeter=0;entryX=0.655;entryY=-0.023;entryDx=0;entryDy=0;entryPerimeter=0;" edge="1" parent="JFfCO8q_ADzKK6mXp7AL-1" source="JFfCO8q_ADzKK6mXp7AL-27" target="JFfCO8q_ADzKK6mXp7AL-20">
          <mxGeometry relative="1" as="geometry" />
        </mxCell>
        <mxCell id="JFfCO8q_ADzKK6mXp7AL-29" style="edgeStyle=orthogonalEdgeStyle;rounded=0;orthogonalLoop=1;jettySize=auto;html=1;exitX=1;exitY=0.5;exitDx=0;exitDy=0;exitPerimeter=0;" edge="1" parent="JFfCO8q_ADzKK6mXp7AL-1" source="JFfCO8q_ADzKK6mXp7AL-30" target="JFfCO8q_ADzKK6mXp7AL-36">
          <mxGeometry relative="1" as="geometry">
            <Array as="points">
              <mxPoint x="228.33000000000004" y="1450" />
              <mxPoint x="228.33000000000004" y="1430" />
            </Array>
          </mxGeometry>
        </mxCell>
        <mxCell id="JFfCO8q_ADzKK6mXp7AL-30" value="NAIP Imagery" style="strokeWidth=2;html=1;shape=mxgraph.flowchart.start_1;whiteSpace=wrap;fontSize=13;fontStyle=1;fillColor=#d5e8d4;strokeColor=#82b366;" vertex="1" parent="JFfCO8q_ADzKK6mXp7AL-1">
          <mxGeometry x="49.999999999999986" y="1400" width="133.33" height="80" as="geometry" />
        </mxCell>
        <mxCell id="JFfCO8q_ADzKK6mXp7AL-31" style="edgeStyle=orthogonalEdgeStyle;rounded=0;orthogonalLoop=1;jettySize=auto;html=1;exitX=1;exitY=0.5;exitDx=0;exitDy=0;exitPerimeter=0;entryX=0;entryY=0.5;entryDx=0;entryDy=0;" edge="1" parent="JFfCO8q_ADzKK6mXp7AL-1" source="JFfCO8q_ADzKK6mXp7AL-32" target="JFfCO8q_ADzKK6mXp7AL-36">
          <mxGeometry relative="1" as="geometry" />
        </mxCell>
        <mxCell id="JFfCO8q_ADzKK6mXp7AL-32" value="Year" style="strokeWidth=2;html=1;shape=mxgraph.flowchart.document2;whiteSpace=wrap;size=0.25;fillColor=#e1d5e7;strokeColor=#9673a6;" vertex="1" parent="JFfCO8q_ADzKK6mXp7AL-1">
          <mxGeometry x="65" y="1310" width="103.33" height="70" as="geometry" />
        </mxCell>
        <mxCell id="JFfCO8q_ADzKK6mXp7AL-33" style="edgeStyle=orthogonalEdgeStyle;rounded=0;orthogonalLoop=1;jettySize=auto;html=1;exitX=1;exitY=0.5;exitDx=0;exitDy=0;exitPerimeter=0;entryX=0;entryY=0.5;entryDx=0;entryDy=0;" edge="1" parent="JFfCO8q_ADzKK6mXp7AL-1" source="dRKn9hm-ySShKKEn5I2S-12" target="JFfCO8q_ADzKK6mXp7AL-36">
          <mxGeometry relative="1" as="geometry">
            <mxPoint x="168.32999999999993" y="1535" as="sourcePoint" />
          </mxGeometry>
        </mxCell>
        <mxCell id="JFfCO8q_ADzKK6mXp7AL-35" style="edgeStyle=orthogonalEdgeStyle;rounded=0;orthogonalLoop=1;jettySize=auto;html=1;exitX=1;exitY=0.5;exitDx=0;exitDy=0;" edge="1" parent="JFfCO8q_ADzKK6mXp7AL-1" source="JFfCO8q_ADzKK6mXp7AL-36" target="JFfCO8q_ADzKK6mXp7AL-37">
          <mxGeometry relative="1" as="geometry" />
        </mxCell>
        <mxCell id="JFfCO8q_ADzKK6mXp7AL-36" value="&lt;font style=&quot;font-size: 15px;&quot;&gt;&lt;b&gt;ProcessNAIP&lt;/b&gt;&lt;br&gt;select, clip, moasic, ndvi, other bands&lt;br&gt;&lt;/font&gt;" style="rounded=1;whiteSpace=wrap;html=1;absoluteArcSize=1;arcSize=14;strokeWidth=4;fillColor=#dae8fc;strokeColor=#FF7700;" vertex="1" parent="JFfCO8q_ADzKK6mXp7AL-1">
          <mxGeometry x="288.33" y="1370" width="150" height="120" as="geometry" />
        </mxCell>
        <mxCell id="JFfCO8q_ADzKK6mXp7AL-37" value="Multiband NAIP&amp;nbsp;" style="shape=parallelogram;html=1;strokeWidth=2;perimeter=parallelogramPerimeter;whiteSpace=wrap;rounded=1;arcSize=12;size=0.23;fontStyle=1;fillColor=#ffe6cc;strokeColor=#d79b00;" vertex="1" parent="JFfCO8q_ADzKK6mXp7AL-1">
          <mxGeometry x="479.9999999999999" y="1395.71" width="160" height="68.57" as="geometry" />
        </mxCell>
        <mxCell id="JFfCO8q_ADzKK6mXp7AL-38" style="edgeStyle=orthogonalEdgeStyle;rounded=0;orthogonalLoop=1;jettySize=auto;html=1;exitX=1;exitY=0.5;exitDx=0;exitDy=0;" edge="1" parent="JFfCO8q_ADzKK6mXp7AL-1" source="JFfCO8q_ADzKK6mXp7AL-39" target="JFfCO8q_ADzKK6mXp7AL-42">
          <mxGeometry relative="1" as="geometry" />
        </mxCell>
        <mxCell id="JFfCO8q_ADzKK6mXp7AL-39" value="&lt;font style=&quot;font-size: 15px;&quot;&gt;&lt;b&gt;snicModel&lt;/b&gt;&lt;br&gt;Define seeds, run segementation, project results&lt;br&gt;&lt;/font&gt;" style="rounded=1;whiteSpace=wrap;html=1;absoluteArcSize=1;arcSize=14;strokeWidth=4;fillColor=#dae8fc;strokeColor=#FF7700;" vertex="1" parent="JFfCO8q_ADzKK6mXp7AL-1">
          <mxGeometry x="688.33" y="1330" width="210" height="160" as="geometry" />
        </mxCell>
        <mxCell id="JFfCO8q_ADzKK6mXp7AL-40" style="edgeStyle=orthogonalEdgeStyle;rounded=0;orthogonalLoop=1;jettySize=auto;html=1;exitX=1;exitY=0.75;exitDx=0;exitDy=0;entryX=-0.001;entryY=0.694;entryDx=0;entryDy=0;entryPerimeter=0;" edge="1" parent="JFfCO8q_ADzKK6mXp7AL-1" source="JFfCO8q_ADzKK6mXp7AL-37" target="JFfCO8q_ADzKK6mXp7AL-39">
          <mxGeometry relative="1" as="geometry" />
        </mxCell>
        <mxCell id="JFfCO8q_ADzKK6mXp7AL-41" style="edgeStyle=orthogonalEdgeStyle;rounded=0;orthogonalLoop=1;jettySize=auto;html=1;exitX=0.5;exitY=0;exitDx=0;exitDy=0;" edge="1" parent="JFfCO8q_ADzKK6mXp7AL-1" source="JFfCO8q_ADzKK6mXp7AL-42" target="JFfCO8q_ADzKK6mXp7AL-67">
          <mxGeometry relative="1" as="geometry" />
        </mxCell>
        <mxCell id="JFfCO8q_ADzKK6mXp7AL-42" value="Sub set imagery &lt;br&gt;base on model Variables" style="shape=parallelogram;html=1;strokeWidth=2;perimeter=parallelogramPerimeter;whiteSpace=wrap;rounded=1;arcSize=12;size=0.23;fontStyle=1;fillColor=#ffe6cc;strokeColor=#d79b00;" vertex="1" parent="JFfCO8q_ADzKK6mXp7AL-1">
          <mxGeometry x="1011.66" y="1345" width="210" height="130" as="geometry" />
        </mxCell>
        <mxCell id="JFfCO8q_ADzKK6mXp7AL-46" value="&lt;font style=&quot;font-size: 16px;&quot;&gt;Apply the models&lt;br&gt;&lt;span style=&quot;font-weight: 400;&quot;&gt;The trained RF models are applied to the same paramerter set to generate the ensamble model. When the test/train data overlaps with the current area of interest, the individal and&amp;nbsp;&lt;/span&gt;&lt;br&gt;&lt;/font&gt;" style="rounded=0;whiteSpace=wrap;html=1;fillColor=#f8cecc;strokeColor=#b85450;fontStyle=1" vertex="1" parent="JFfCO8q_ADzKK6mXp7AL-1">
          <mxGeometry x="53.33" y="920" width="440" height="110" as="geometry" />
        </mxCell>
        <mxCell id="dRKn9hm-ySShKKEn5I2S-11" style="edgeStyle=orthogonalEdgeStyle;rounded=0;orthogonalLoop=1;jettySize=auto;html=1;exitX=0.5;exitY=0;exitDx=0;exitDy=0;" edge="1" parent="JFfCO8q_ADzKK6mXp7AL-1" source="JFfCO8q_ADzKK6mXp7AL-47" target="dRKn9hm-ySShKKEn5I2S-10">
          <mxGeometry relative="1" as="geometry" />
        </mxCell>
        <mxCell id="JFfCO8q_ADzKK6mXp7AL-47" value="Training Data" style="shape=parallelogram;html=1;strokeWidth=2;perimeter=parallelogramPerimeter;whiteSpace=wrap;rounded=1;arcSize=12;size=0.23;fontStyle=1;fillColor=#ffe6cc;strokeColor=#d79b00;" vertex="1" parent="JFfCO8q_ADzKK6mXp7AL-1">
          <mxGeometry x="1410" y="755.71" width="160" height="68.57" as="geometry" />
        </mxCell>
        <mxCell id="JFfCO8q_ADzKK6mXp7AL-50" value="&lt;font style=&quot;font-size: 15px;&quot;&gt;&lt;b&gt;validate on Test Data&amp;nbsp;&lt;br&gt;&lt;/b&gt;Evaluate the model on the testing data&lt;br&gt;&lt;/font&gt;" style="rounded=1;whiteSpace=wrap;html=1;absoluteArcSize=1;arcSize=14;strokeWidth=4;fillColor=#dae8fc;strokeColor=#FF7700;" vertex="1" parent="JFfCO8q_ADzKK6mXp7AL-1">
          <mxGeometry x="1053.33" y="1000" width="100" height="100" as="geometry" />
        </mxCell>
        <mxCell id="JFfCO8q_ADzKK6mXp7AL-54" style="edgeStyle=orthogonalEdgeStyle;rounded=0;orthogonalLoop=1;jettySize=auto;html=1;exitX=1;exitY=0.5;exitDx=0;exitDy=0;entryX=0;entryY=0;entryDx=0;entryDy=0;" edge="1" parent="JFfCO8q_ADzKK6mXp7AL-1" source="JFfCO8q_ADzKK6mXp7AL-55" target="JFfCO8q_ADzKK6mXp7AL-67">
          <mxGeometry relative="1" as="geometry" />
        </mxCell>
        <mxCell id="JFfCO8q_ADzKK6mXp7AL-55" value="&lt;font style=&quot;font-size: 15px;&quot;&gt;&lt;b&gt;RF classifier pixel&lt;/b&gt;&lt;br&gt;Develop model, apply to imagery&lt;br&gt;&lt;/font&gt;" style="rounded=1;whiteSpace=wrap;html=1;absoluteArcSize=1;arcSize=14;strokeWidth=4;fillColor=#dae8fc;strokeColor=#FF7700;" vertex="1" parent="JFfCO8q_ADzKK6mXp7AL-1">
          <mxGeometry x="701.6600000000001" y="1134.28" width="191.67" height="100" as="geometry" />
        </mxCell>
        <mxCell id="JFfCO8q_ADzKK6mXp7AL-56" style="edgeStyle=orthogonalEdgeStyle;rounded=0;orthogonalLoop=1;jettySize=auto;html=1;exitX=1;exitY=0.5;exitDx=0;exitDy=0;exitPerimeter=0;entryX=0;entryY=0.25;entryDx=0;entryDy=0;" edge="1" parent="JFfCO8q_ADzKK6mXp7AL-1" source="JFfCO8q_ADzKK6mXp7AL-58" target="JFfCO8q_ADzKK6mXp7AL-60">
          <mxGeometry relative="1" as="geometry" />
        </mxCell>
        <mxCell id="dRKn9hm-ySShKKEn5I2S-14" style="edgeStyle=orthogonalEdgeStyle;rounded=0;orthogonalLoop=1;jettySize=auto;html=1;exitX=0.5;exitY=0;exitDx=0;exitDy=0;exitPerimeter=0;" edge="1" parent="JFfCO8q_ADzKK6mXp7AL-1" source="JFfCO8q_ADzKK6mXp7AL-58" target="JFfCO8q_ADzKK6mXp7AL-65">
          <mxGeometry relative="1" as="geometry">
            <mxPoint x="590" y="1050" as="targetPoint" />
          </mxGeometry>
        </mxCell>
        <mxCell id="JFfCO8q_ADzKK6mXp7AL-58" value="Training Data&lt;br&gt;" style="strokeWidth=2;html=1;shape=mxgraph.flowchart.start_1;whiteSpace=wrap;fontSize=13;fontStyle=1;fillColor=#d5e8d4;strokeColor=#82b366;" vertex="1" parent="JFfCO8q_ADzKK6mXp7AL-1">
          <mxGeometry x="60" y="1130" width="133.33" height="80" as="geometry" />
        </mxCell>
        <mxCell id="JFfCO8q_ADzKK6mXp7AL-59" value="" style="edgeStyle=orthogonalEdgeStyle;rounded=0;orthogonalLoop=1;jettySize=auto;html=1;entryX=0;entryY=0.5;entryDx=0;entryDy=0;" edge="1" parent="JFfCO8q_ADzKK6mXp7AL-1" source="JFfCO8q_ADzKK6mXp7AL-60" target="JFfCO8q_ADzKK6mXp7AL-55">
          <mxGeometry relative="1" as="geometry">
            <mxPoint x="680" y="1114.2849999999999" as="targetPoint" />
          </mxGeometry>
        </mxCell>
        <mxCell id="JFfCO8q_ADzKK6mXp7AL-60" value="Training Split" style="shape=parallelogram;html=1;strokeWidth=2;perimeter=parallelogramPerimeter;whiteSpace=wrap;rounded=1;arcSize=12;size=0.23;fontStyle=1;fillColor=#ffe6cc;strokeColor=#d79b00;" vertex="1" parent="JFfCO8q_ADzKK6mXp7AL-1">
          <mxGeometry x="419.99999999999994" y="1150" width="160" height="68.57" as="geometry" />
        </mxCell>
        <mxCell id="dRKn9hm-ySShKKEn5I2S-15" style="edgeStyle=orthogonalEdgeStyle;rounded=0;orthogonalLoop=1;jettySize=auto;html=1;exitX=1;exitY=0.5;exitDx=0;exitDy=0;entryX=0;entryY=0.5;entryDx=0;entryDy=0;" edge="1" parent="JFfCO8q_ADzKK6mXp7AL-1" source="JFfCO8q_ADzKK6mXp7AL-65" target="JFfCO8q_ADzKK6mXp7AL-50">
          <mxGeometry relative="1" as="geometry" />
        </mxCell>
        <mxCell id="JFfCO8q_ADzKK6mXp7AL-65" value="Testing Split" style="shape=parallelogram;html=1;strokeWidth=2;perimeter=parallelogramPerimeter;whiteSpace=wrap;rounded=1;arcSize=12;size=0.23;fontStyle=1;fillColor=#ffe6cc;strokeColor=#d79b00;" vertex="1" parent="JFfCO8q_ADzKK6mXp7AL-1">
          <mxGeometry x="650" y="1015.71" width="160" height="68.57" as="geometry" />
        </mxCell>
        <mxCell id="JFfCO8q_ADzKK6mXp7AL-66" style="edgeStyle=orthogonalEdgeStyle;rounded=0;orthogonalLoop=1;jettySize=auto;html=1;exitX=0.5;exitY=0;exitDx=0;exitDy=0;entryX=0.5;entryY=1;entryDx=0;entryDy=0;" edge="1" parent="JFfCO8q_ADzKK6mXp7AL-1" source="JFfCO8q_ADzKK6mXp7AL-67" target="JFfCO8q_ADzKK6mXp7AL-50">
          <mxGeometry relative="1" as="geometry" />
        </mxCell>
        <mxCell id="JFfCO8q_ADzKK6mXp7AL-67" value="Pixel Based model" style="shape=parallelogram;html=1;strokeWidth=2;perimeter=parallelogramPerimeter;whiteSpace=wrap;rounded=1;arcSize=12;size=0.23;fontStyle=1;fillColor=#ffe6cc;strokeColor=#d79b00;" vertex="1" parent="JFfCO8q_ADzKK6mXp7AL-1">
          <mxGeometry x="993.33" y="1159.9999999999998" width="250" height="108.57" as="geometry" />
        </mxCell>
        <mxCell id="JFfCO8q_ADzKK6mXp7AL-71" value="NAIP Imagery" style="strokeWidth=2;html=1;shape=mxgraph.flowchart.start_1;whiteSpace=wrap;fontSize=13;fontStyle=1;fillColor=#d5e8d4;strokeColor=#82b366;" vertex="1" parent="JFfCO8q_ADzKK6mXp7AL-1">
          <mxGeometry x="53.329999999999984" y="2270" width="133.33" height="80" as="geometry" />
        </mxCell>
        <mxCell id="JFfCO8q_ADzKK6mXp7AL-72" style="edgeStyle=orthogonalEdgeStyle;rounded=0;orthogonalLoop=1;jettySize=auto;html=1;exitX=1;exitY=0.5;exitDx=0;exitDy=0;exitPerimeter=0;entryX=0;entryY=0.5;entryDx=0;entryDy=0;strokeWidth=3;" edge="1" parent="JFfCO8q_ADzKK6mXp7AL-1" source="JFfCO8q_ADzKK6mXp7AL-73" target="JFfCO8q_ADzKK6mXp7AL-77">
          <mxGeometry relative="1" as="geometry" />
        </mxCell>
        <mxCell id="JFfCO8q_ADzKK6mXp7AL-73" value="Training Data&lt;br&gt;" style="strokeWidth=2;html=1;shape=mxgraph.flowchart.start_1;whiteSpace=wrap;fontSize=13;fontStyle=1;fillColor=#d5e8d4;strokeColor=#82b366;" vertex="1" parent="JFfCO8q_ADzKK6mXp7AL-1">
          <mxGeometry x="53.33" y="2160" width="133.33" height="80" as="geometry" />
        </mxCell>
        <mxCell id="JFfCO8q_ADzKK6mXp7AL-74" style="edgeStyle=orthogonalEdgeStyle;rounded=0;orthogonalLoop=1;jettySize=auto;html=1;exitX=0.5;exitY=1;exitDx=0;exitDy=0;entryX=0;entryY=0.75;entryDx=0;entryDy=0;strokeWidth=3;" edge="1" parent="JFfCO8q_ADzKK6mXp7AL-1" source="JFfCO8q_ADzKK6mXp7AL-75" target="JFfCO8q_ADzKK6mXp7AL-81">
          <mxGeometry relative="1" as="geometry" />
        </mxCell>
        <mxCell id="JFfCO8q_ADzKK6mXp7AL-75" value="&lt;font style=&quot;font-size: 15px;&quot;&gt;&lt;b&gt;ProcessNAIP&lt;/b&gt;&lt;br&gt;select, clip, moasic, ndvi, other bands&lt;br&gt;&lt;/font&gt;" style="rounded=1;whiteSpace=wrap;html=1;absoluteArcSize=1;arcSize=14;strokeWidth=2;fillColor=#dae8fc;strokeColor=#6c8ebf;" vertex="1" parent="JFfCO8q_ADzKK6mXp7AL-1">
          <mxGeometry x="248.33" y="2260" width="150" height="120" as="geometry" />
        </mxCell>
        <mxCell id="JFfCO8q_ADzKK6mXp7AL-76" style="edgeStyle=orthogonalEdgeStyle;rounded=0;orthogonalLoop=1;jettySize=auto;html=1;exitX=1;exitY=0.5;exitDx=0;exitDy=0;entryX=0;entryY=0.5;entryDx=0;entryDy=0;strokeWidth=3;" edge="1" parent="JFfCO8q_ADzKK6mXp7AL-1" source="JFfCO8q_ADzKK6mXp7AL-77" target="JFfCO8q_ADzKK6mXp7AL-85">
          <mxGeometry relative="1" as="geometry" />
        </mxCell>
        <mxCell id="JFfCO8q_ADzKK6mXp7AL-77" value="Test/Train Split" style="shape=parallelogram;html=1;strokeWidth=2;perimeter=parallelogramPerimeter;whiteSpace=wrap;rounded=1;arcSize=12;size=0.23;fontStyle=1;fillColor=#ffe6cc;strokeColor=#d79b00;" vertex="1" parent="JFfCO8q_ADzKK6mXp7AL-1">
          <mxGeometry x="248.32999999999996" y="2165.7200000000003" width="160" height="68.57" as="geometry" />
        </mxCell>
        <mxCell id="JFfCO8q_ADzKK6mXp7AL-78" style="edgeStyle=orthogonalEdgeStyle;rounded=0;orthogonalLoop=1;jettySize=auto;html=1;exitX=1;exitY=0.5;exitDx=0;exitDy=0;entryX=0;entryY=0.5;entryDx=0;entryDy=0;strokeWidth=3;" edge="1" parent="JFfCO8q_ADzKK6mXp7AL-1" source="JFfCO8q_ADzKK6mXp7AL-80" target="JFfCO8q_ADzKK6mXp7AL-83">
          <mxGeometry relative="1" as="geometry" />
        </mxCell>
        <mxCell id="JFfCO8q_ADzKK6mXp7AL-79" style="edgeStyle=orthogonalEdgeStyle;rounded=0;orthogonalLoop=1;jettySize=auto;html=1;exitX=0.5;exitY=1;exitDx=0;exitDy=0;entryX=0.5;entryY=0;entryDx=0;entryDy=0;strokeWidth=3;" edge="1" parent="JFfCO8q_ADzKK6mXp7AL-1" source="JFfCO8q_ADzKK6mXp7AL-80" target="JFfCO8q_ADzKK6mXp7AL-81">
          <mxGeometry relative="1" as="geometry" />
        </mxCell>
        <mxCell id="JFfCO8q_ADzKK6mXp7AL-80" value="&lt;font style=&quot;font-size: 15px;&quot;&gt;&lt;b&gt;snicModel(cluster)&lt;/b&gt;&lt;br&gt;Define seeds, run segementation, project results&lt;br&gt;&lt;/font&gt;" style="rounded=1;whiteSpace=wrap;html=1;absoluteArcSize=1;arcSize=14;strokeWidth=2;fillColor=#dae8fc;strokeColor=#6c8ebf;" vertex="1" parent="JFfCO8q_ADzKK6mXp7AL-1">
          <mxGeometry x="491.66" y="2260" width="210" height="130" as="geometry" />
        </mxCell>
        <mxCell id="JFfCO8q_ADzKK6mXp7AL-81" value="&lt;font style=&quot;font-size: 15px;&quot;&gt;&lt;b&gt;RF classifier pixel&lt;/b&gt;&lt;br&gt;Develop model, apply to imagery&lt;br&gt;&lt;/font&gt;" style="rounded=1;whiteSpace=wrap;html=1;absoluteArcSize=1;arcSize=14;strokeWidth=2;fillColor=#dae8fc;strokeColor=#6c8ebf;" vertex="1" parent="JFfCO8q_ADzKK6mXp7AL-1">
          <mxGeometry x="496.65999999999997" y="2450" width="191.67" height="100" as="geometry" />
        </mxCell>
        <mxCell id="JFfCO8q_ADzKK6mXp7AL-82" style="edgeStyle=orthogonalEdgeStyle;rounded=0;orthogonalLoop=1;jettySize=auto;html=1;exitX=0.5;exitY=1;exitDx=0;exitDy=0;entryX=0;entryY=0.5;entryDx=0;entryDy=0;strokeWidth=3;" edge="1" parent="JFfCO8q_ADzKK6mXp7AL-1" source="JFfCO8q_ADzKK6mXp7AL-83" target="JFfCO8q_ADzKK6mXp7AL-86">
          <mxGeometry relative="1" as="geometry" />
        </mxCell>
        <mxCell id="JFfCO8q_ADzKK6mXp7AL-83" value="&lt;font style=&quot;font-size: 15px;&quot;&gt;&lt;b&gt;RF classifier cluster&lt;/b&gt;&lt;br&gt;Develop model, apply to imagery&lt;br&gt;&lt;/font&gt;" style="rounded=1;whiteSpace=wrap;html=1;absoluteArcSize=1;arcSize=14;strokeWidth=2;fillColor=#dae8fc;strokeColor=#6c8ebf;" vertex="1" parent="JFfCO8q_ADzKK6mXp7AL-1">
          <mxGeometry x="748.33" y="2274.2799999999997" width="190" height="100" as="geometry" />
        </mxCell>
        <mxCell id="JFfCO8q_ADzKK6mXp7AL-84" style="edgeStyle=orthogonalEdgeStyle;rounded=0;orthogonalLoop=1;jettySize=auto;html=1;exitX=0.5;exitY=1;exitDx=0;exitDy=0;entryX=0.5;entryY=0;entryDx=0;entryDy=0;strokeWidth=3;" edge="1" parent="JFfCO8q_ADzKK6mXp7AL-1" source="JFfCO8q_ADzKK6mXp7AL-85" target="JFfCO8q_ADzKK6mXp7AL-86">
          <mxGeometry relative="1" as="geometry">
            <Array as="points">
              <mxPoint x="1083.33" y="2250" />
            </Array>
          </mxGeometry>
        </mxCell>
        <mxCell id="JFfCO8q_ADzKK6mXp7AL-85" value="&lt;font style=&quot;font-size: 15px;&quot;&gt;&lt;b&gt;validate on Test Data&amp;nbsp;&lt;br&gt;&lt;/b&gt;Evaluate the model on the testing data&lt;br&gt;&lt;/font&gt;" style="rounded=1;whiteSpace=wrap;html=1;absoluteArcSize=1;arcSize=14;strokeWidth=2;fillColor=#ffe6cc;strokeColor=#d79b00;" vertex="1" parent="JFfCO8q_ADzKK6mXp7AL-1">
          <mxGeometry x="1048.33" y="2150" width="100" height="100" as="geometry" />
        </mxCell>
        <mxCell id="JFfCO8q_ADzKK6mXp7AL-86" value="Ensamble Model" style="shape=parallelogram;html=1;strokeWidth=2;perimeter=parallelogramPerimeter;whiteSpace=wrap;rounded=1;arcSize=12;size=0.23;fontStyle=1;fillColor=#ffe6cc;strokeColor=#d79b00;" vertex="1" parent="JFfCO8q_ADzKK6mXp7AL-1">
          <mxGeometry x="958.33" y="2370" width="250" height="108.57" as="geometry" />
        </mxCell>
        <mxCell id="JFfCO8q_ADzKK6mXp7AL-87" style="edgeStyle=orthogonalEdgeStyle;rounded=0;orthogonalLoop=1;jettySize=auto;html=1;exitX=1;exitY=0.5;exitDx=0;exitDy=0;exitPerimeter=0;entryX=0;entryY=0.417;entryDx=0;entryDy=0;entryPerimeter=0;strokeWidth=3;" edge="1" parent="JFfCO8q_ADzKK6mXp7AL-1" source="JFfCO8q_ADzKK6mXp7AL-71" target="JFfCO8q_ADzKK6mXp7AL-75">
          <mxGeometry relative="1" as="geometry" />
        </mxCell>
        <mxCell id="JFfCO8q_ADzKK6mXp7AL-88" style="edgeStyle=orthogonalEdgeStyle;rounded=0;orthogonalLoop=1;jettySize=auto;html=1;entryX=-0.01;entryY=0.461;entryDx=0;entryDy=0;entryPerimeter=0;strokeWidth=3;exitX=1;exitY=0.5;exitDx=0;exitDy=0;" edge="1" parent="JFfCO8q_ADzKK6mXp7AL-1" source="JFfCO8q_ADzKK6mXp7AL-75" target="JFfCO8q_ADzKK6mXp7AL-80">
          <mxGeometry relative="1" as="geometry">
            <mxPoint x="398.33" y="2310" as="sourcePoint" />
          </mxGeometry>
        </mxCell>
        <mxCell id="JFfCO8q_ADzKK6mXp7AL-89" style="edgeStyle=orthogonalEdgeStyle;rounded=0;orthogonalLoop=1;jettySize=auto;html=1;exitX=1;exitY=0.5;exitDx=0;exitDy=0;entryX=0.076;entryY=0.617;entryDx=0;entryDy=0;entryPerimeter=0;strokeWidth=3;" edge="1" parent="JFfCO8q_ADzKK6mXp7AL-1" source="JFfCO8q_ADzKK6mXp7AL-81" target="JFfCO8q_ADzKK6mXp7AL-86">
          <mxGeometry relative="1" as="geometry" />
        </mxCell>
        <mxCell id="JFfCO8q_ADzKK6mXp7AL-90" value="&lt;font style=&quot;font-size: 16px;&quot;&gt;&lt;b&gt;Core Compoments&lt;br&gt;&lt;/b&gt;A streamline version of the classification workflow for conversation purposes&amp;nbsp;&lt;br&gt;&lt;/font&gt;" style="rounded=0;whiteSpace=wrap;html=1;fillColor=#f8cecc;strokeColor=#b85450;" vertex="1" parent="JFfCO8q_ADzKK6mXp7AL-1">
          <mxGeometry x="48.33" y="1950" width="440" height="110" as="geometry" />
        </mxCell>
        <mxCell id="dRKn9hm-ySShKKEn5I2S-1" style="edgeStyle=orthogonalEdgeStyle;rounded=0;orthogonalLoop=1;jettySize=auto;html=1;exitX=1;exitY=0.5;exitDx=0;exitDy=0;exitPerimeter=0;entryX=0;entryY=0.5;entryDx=0;entryDy=0;" edge="1" parent="JFfCO8q_ADzKK6mXp7AL-1" source="dRKn9hm-ySShKKEn5I2S-0" target="JFfCO8q_ADzKK6mXp7AL-16">
          <mxGeometry relative="1" as="geometry" />
        </mxCell>
        <mxCell id="dRKn9hm-ySShKKEn5I2S-6" value="" style="edgeStyle=orthogonalEdgeStyle;rounded=0;orthogonalLoop=1;jettySize=auto;html=1;" edge="1" parent="JFfCO8q_ADzKK6mXp7AL-1" source="dRKn9hm-ySShKKEn5I2S-3" target="dRKn9hm-ySShKKEn5I2S-4">
          <mxGeometry relative="1" as="geometry" />
        </mxCell>
        <mxCell id="dRKn9hm-ySShKKEn5I2S-3" value="&lt;span style=&quot;font-size: 15px;&quot;&gt;&lt;b&gt;Established Neighbor AOI&lt;br&gt;- three tiers&amp;nbsp;&lt;br&gt;&lt;/b&gt;&lt;/span&gt;" style="rounded=1;whiteSpace=wrap;html=1;absoluteArcSize=1;arcSize=14;strokeWidth=4;fillColor=#dae8fc;strokeColor=#0303FF;" vertex="1" parent="JFfCO8q_ADzKK6mXp7AL-1">
          <mxGeometry x="418.33" y="620" width="150" height="100" as="geometry" />
        </mxCell>
        <mxCell id="dRKn9hm-ySShKKEn5I2S-2" style="edgeStyle=orthogonalEdgeStyle;rounded=0;orthogonalLoop=1;jettySize=auto;html=1;exitX=1;exitY=0.5;exitDx=0;exitDy=0;exitPerimeter=0;" edge="1" parent="JFfCO8q_ADzKK6mXp7AL-1" source="dRKn9hm-ySShKKEn5I2S-0" target="dRKn9hm-ySShKKEn5I2S-3">
          <mxGeometry relative="1" as="geometry">
            <mxPoint x="410" y="670" as="targetPoint" />
          </mxGeometry>
        </mxCell>
        <mxCell id="dRKn9hm-ySShKKEn5I2S-4" value="List of areas to &lt;br&gt;project model" style="shape=parallelogram;html=1;strokeWidth=2;perimeter=parallelogramPerimeter;whiteSpace=wrap;rounded=1;arcSize=12;size=0.23;fontStyle=1;fillColor=#ffe6cc;strokeColor=#d79b00;" vertex="1" parent="JFfCO8q_ADzKK6mXp7AL-1">
          <mxGeometry x="658.33" y="627.86" width="181.67" height="84.28" as="geometry" />
        </mxCell>
        <mxCell id="dRKn9hm-ySShKKEn5I2S-9" style="edgeStyle=orthogonalEdgeStyle;rounded=0;orthogonalLoop=1;jettySize=auto;html=1;exitX=1;exitY=0.5;exitDx=0;exitDy=0;entryX=0;entryY=0.25;entryDx=0;entryDy=0;" edge="1" parent="JFfCO8q_ADzKK6mXp7AL-1" source="dRKn9hm-ySShKKEn5I2S-7" target="JFfCO8q_ADzKK6mXp7AL-47">
          <mxGeometry relative="1" as="geometry" />
        </mxCell>
        <mxCell id="dRKn9hm-ySShKKEn5I2S-7" value="&lt;font style=&quot;font-size: 15px;&quot;&gt;&lt;b&gt;VSURF&lt;/b&gt;&lt;br&gt;variable importance and correlation&lt;br&gt;&lt;/font&gt;" style="rounded=1;whiteSpace=wrap;html=1;absoluteArcSize=1;arcSize=14;strokeWidth=4;fillColor=#dae8fc;strokeColor=#0303FF;" vertex="1" parent="JFfCO8q_ADzKK6mXp7AL-1">
          <mxGeometry x="1150" y="730" width="180" height="100" as="geometry" />
        </mxCell>
        <mxCell id="dRKn9hm-ySShKKEn5I2S-10" value="List of variables to use &lt;br&gt;in the modeling effort" style="shape=parallelogram;html=1;strokeWidth=2;perimeter=parallelogramPerimeter;whiteSpace=wrap;rounded=1;arcSize=12;size=0.23;fontStyle=1;fillColor=#ffe6cc;strokeColor=#d79b00;align=center;" vertex="1" parent="JFfCO8q_ADzKK6mXp7AL-1">
          <mxGeometry x="1370" y="580" width="261.67" height="84.28" as="geometry" />
        </mxCell>
        <mxCell id="dRKn9hm-ySShKKEn5I2S-12" value="Sampling Grid" style="strokeWidth=2;html=1;shape=mxgraph.flowchart.start_1;whiteSpace=wrap;fontSize=13;fontStyle=1;fillColor=#d5e8d4;strokeColor=#82b366;" vertex="1" parent="JFfCO8q_ADzKK6mXp7AL-1">
          <mxGeometry x="50.00000000000003" y="1500" width="133.33" height="80" as="geometry" />
        </mxCell>
        <mxCell id="dRKn9hm-ySShKKEn5I2S-16" value="&lt;b&gt;Python Functions&lt;/b&gt;" style="whiteSpace=wrap;html=1;aspect=fixed;strokeColor=#FF7700;strokeWidth=5;" vertex="1" parent="JFfCO8q_ADzKK6mXp7AL-1">
          <mxGeometry x="938.33" y="35.72" width="94.28" height="94.28" as="geometry" />
        </mxCell>
        <mxCell id="dRKn9hm-ySShKKEn5I2S-17" value="&lt;b&gt;R Functions&lt;/b&gt;" style="whiteSpace=wrap;html=1;aspect=fixed;strokeColor=#0303FF;strokeWidth=5;" vertex="1" parent="JFfCO8q_ADzKK6mXp7AL-1">
          <mxGeometry x="1060" y="35.72" width="94.28" height="94.28" as="geometry" />
        </mxCell>
      </root>
    </mxGraphModel>
  </diagram>
</mxfile>
